<?xml version="1.0" encoding="utf-8"?>
<!-- Generator: Adobe Illustrator 21.1.0, SVG Export Plug-In . SVG Version: 6.00 Build 0)  -->
<svg version="1.1" id="Слой_1" xmlns="http://www.w3.org/2000/svg" xmlns:xlink="http://www.w3.org/1999/xlink" x="0px" y="0px"
	 viewBox="0 0 1500 1500" style="enable-background:new 0 0 1500 1500;" xml:space="preserve">
<style type="text/css">
	.st0{fill-rule:evenodd;clip-rule:evenodd;fill:none;}
	.st1{fill-rule:evenodd;clip-rule:evenodd;fill:#3F7D95;}
	.st2{fill-rule:evenodd;clip-rule:evenodd;fill:#FFFFFF;}
</style>
<path class="st0" d="M786,326c-28.5,1.5-48.3,13.3-71,19c-0.3-0.3-0.7-0.7-1-1c-0.7-43.5-0.4-100.2,30-113
	C783.8,220,786.8,289,786,326z"/>
<path class="st0" d="M776,332c54.3-0.9,84.3,28,96,69c-8.6,24.9-65.5,28.3-92,15c-6-5.7-12-11.3-18-17c-33.2,3.8-86.7,23.6-79,63
	c3.4,17.3,20.7,23.1,25,36c0.7,29.7,1.3,59.3,2,89c-1.3,0-2.7,0-4,0c-51.4-36.3-119.3-126.7-52-196c20.6-21.2,52.7-37.2,82-49
	C749.3,338.7,762.7,335.3,776,332z"/>
<path class="st0" d="M756,405c1.7,0.3,3.3,0.7,5,1c8.9,6.7,16.6,12.4,27,19c-1.3,58.3-2.7,116.7-4,175c-0.7,11.3-1.3,22.7-2,34
	c-13.4,25.5-42.4,45.3-64,63c-0.7-0.3-1.3-0.7-2-1c-0.7-92-1.3-184-2-276C726.5,415.5,742.3,411.3,756,405z"/>
<path class="st0" d="M792,558c15.4,7.5,27.5,18.6,39,30c105.9,104.7-94.7,155-120,222c-5.5,14.6,2.2,26.6,5,37
	c0.7,26.7,1.3,53.3,2,80c-18-5.3-34.9-23-46-36c-8.2-9.6-17.1-20.1-22-33c-41.4-109.9,98.2-157.5,134-216
	C794.3,625.2,791.7,582.1,792,558z"/>
<path class="st0" d="M781,751c5.3,4.2,1,48.9,1,61c-2,63.3-4,126.7-6,190c-6.9,12.2-32.8,28.9-48,32c-2.7-76-5.3-152-8-228
	C724.8,786.6,766.8,764.9,781,751z"/>
<path class="st0" d="M787,909c13.7,10.3,27.3,20.7,41,31c6.7,8,13.3,16,20,24c29.5,56.5-49.9,98.6-85,114c-17.3,7.6-44.8,15-47,37
	c2.7,6.3,9.1,11.7,11,17c0.7,16.3,1.3,32.7,2,49c-12.1-3.8-23-15.6-31-24c-7.1-7.5-14.4-14.9-19-25c-35.2-77.2,83.9-91.1,106-131
	C791.8,988.6,779.4,929.9,787,909z"/>
<path class="st0" d="M772,1078c6.8,7.6,0.5,38.9,0,50c-2.2,51.6,8.4,110.8-34,123c-1.3-34.7-2.7-69.3-4-104c-1.9-12.7-5.2-37.4,0-49
	C746.7,1091.3,759.3,1084.7,772,1078z"/>
<path class="st0" d="M777,1179c54.6,31.1-30.4,108.5-73,97c0-1.3,0-2.7,0-4c23.3-6.6,64-21.7,70-45C775,1211,776,1195,777,1179z"/>
<path class="st0" d="M763,1261c9.6,6.8-4.4,63.4-12,67c-10.8-6.6-11.2-38.1-12-54C746.9,1273,759.7,1267,763,1261z"/>
<path class="st1" d="M580,122h330c5.5,0,10,4.5,10,10v1230c0,5.5-4.5,10-10,10H580c-5.5,0-10-4.5-10-10V132
	C570,126.5,574.5,122,580,122z"/>
<path class="st1" d="M124.2,566.7l169.9-282.9c2.8-4.7,9-6.3,13.7-3.4l1054.5,633.1c4.7,2.8,6.3,9,3.4,13.7l-169.9,282.9
	c-2.8,4.7-9,6.3-13.7,3.4L127.7,580.5C122.9,577.6,121.4,571.5,124.2,566.7z"/>
<path class="st1" d="M1202.6,290.5l165.7,285.4c2.8,4.8,1.1,10.9-3.6,13.7L301,1207.2c-4.8,2.8-10.9,1.1-13.7-3.6L121.7,918.1
	c-2.8-4.8-1.1-10.9,3.6-13.7L1189,286.8C1193.7,284.1,1199.9,285.7,1202.6,290.5z"/>
<path class="st2" d="M783.6,315.2c-27.3,1.4-46.3,12.8-68.1,18.2c-0.3-0.3-0.6-0.6-1-1c-0.7-41.7-0.4-96.1,28.8-108.4
	C781.5,213.6,784.4,279.7,783.6,315.2z M774,321c52-0.9,80.8,26.8,92,66.2c-8.3,23.9-62.8,27.1-88.2,14.4
	c-5.8-5.4-11.5-10.9-17.3-16.3c-31.9,3.7-83.1,22.6-75.7,60.4c3.2,16.6,19.9,22.2,24,34.5c0.6,28.4,1.3,56.9,1.9,85.3
	c-1.3,0-2.6,0-3.8,0C657.6,530.7,592.5,444,657,377.5c19.7-20.3,50.5-35.7,78.6-47C748.4,327.3,761.2,324.2,774,321z M754.8,391
	c1.6,0.3,3.2,0.6,4.8,1c8.5,6.4,15.9,11.9,25.9,18.2c-1.3,55.9-2.6,111.9-3.8,167.8c-0.6,10.9-1.3,21.7-1.9,32.6
	c-12.8,24.4-40.6,43.4-61.4,60.4c-0.6-0.3-1.3-0.6-1.9-1c-0.6-88.2-1.3-176.4-1.9-264.7C726.5,401,741.7,397,754.8,391z
	 M789.3,537.7c14.7,7.1,26.4,17.9,37.4,28.8c101.6,100.4-90.7,148.7-115,212.9c-5.3,14,2.1,25.5,4.8,35.5
	c0.6,25.6,1.3,51.1,1.9,76.7c-17.2-5-33.4-22.1-44.1-34.5c-7.9-9.2-16.4-19.3-21.1-31.6c-39.7-105.4,94.1-151,128.5-207.1
	C791.5,602.1,789.1,560.8,789.3,537.7z M778.8,722.7c5.1,4.1,1,46.9,1,58.5c-1.9,60.7-3.8,121.5-5.8,182.2
	c-6.7,11.7-31.5,27.7-46,30.7c-2.6-72.9-5.1-145.8-7.7-218.6C724.9,756.9,765.1,736,778.8,722.7z M784.5,874.2
	c13.1,9.9,26.2,19.8,39.3,29.7c6.4,7.7,12.8,15.3,19.2,23c28.3,54.1-47.8,94.5-81.5,109.3c-16.6,7.3-42.9,14.4-45.1,35.5
	c2.6,6,8.7,11.2,10.5,16.3c0.6,15.7,1.3,31.3,1.9,47c-11.6-3.6-22-14.9-29.7-23c-6.8-7.2-13.8-14.3-18.2-24
	c-33.7-74,80.5-87.3,101.6-125.6C789.2,950.6,777.3,894.3,784.5,874.2z M770.1,1036.3c6.5,7.3,0.5,37.3,0,47.9
	c-2.1,49.5,8.1,106.2-32.6,117.9c-1.3-33.2-2.6-66.5-3.8-99.7c-1.8-12.2-5-35.9,0-47C745.9,1049.1,758,1042.7,770.1,1036.3z
	 M774.9,1133.1c52.3,29.8-29.1,104-70,93c0-1.3,0-2.6,0-3.8c22.3-6.3,61.3-20.8,67.1-43.1C773,1163.8,774,1148.5,774.9,1133.1z
	 M761.5,1211.8c9.2,6.5-4.2,60.8-11.5,64.2c-10.4-6.3-10.8-36.5-11.5-51.8C746.1,1223.2,758.3,1217.5,761.5,1211.8z"/>
</svg>
